<svg width="62" height="62" viewBox="0 0 62 62" fill="none" xmlns="http://www.w3.org/2000/svg">
<path d="M12.986 10.2653C14.4154 4.93068 19.8988 1.76485 25.2335 3.19427L52.2794 10.4412C57.6141 11.8706 60.7799 17.354 59.3505 22.6887L52.1035 49.7346C50.6741 55.0692 45.1907 58.2351 39.8561 56.8056L12.8102 49.5587C7.4755 48.1293 4.30968 42.6459 5.7391 37.3113L12.986 10.2653Z" fill="#7F56D9"/>
<g filter="url(#filter0_b_306_1921)">
<path d="M0.544922 30C0.544922 24.3995 0.544922 21.5992 1.63486 19.4601C2.59359 17.5785 4.1234 16.0487 6.00502 15.0899C8.14413 14 10.9444 14 16.5449 14H32.5449C38.1454 14 40.9457 14 43.0848 15.0899C44.9664 16.0487 46.4963 17.5785 47.455 19.4601C48.5449 21.5992 48.5449 24.3995 48.5449 30V46C48.5449 51.6005 48.5449 54.4008 47.455 56.5399C46.4963 58.4215 44.9664 59.9513 43.0848 60.9101C40.9457 62 38.1454 62 32.5449 62H16.5449C10.9444 62 8.14413 62 6.00502 60.9101C4.1234 59.9513 2.59359 58.4215 1.63486 56.5399C0.544922 54.4008 0.544922 51.6005 0.544922 46V30Z" fill="white" fill-opacity="0.6"/>
<path d="M16.5449 14.5H32.5449C35.3534 14.5 37.4297 14.5004 39.0722 14.6346C40.7088 14.7683 41.8705 15.0324 42.8578 15.5354C44.6454 16.4462 46.0987 17.8996 47.0095 19.6871C47.5126 20.6744 47.7766 21.8361 47.9103 23.4727C48.0445 25.1152 48.0449 27.1915 48.0449 30V46C48.0449 48.8085 48.0445 50.8848 47.9103 52.5273C47.7766 54.1639 47.5126 55.3256 47.0095 56.3129C46.0987 58.1004 44.6454 59.5538 42.8578 60.4646C41.8705 60.9676 40.7088 61.2317 39.0722 61.3654C37.4297 61.4996 35.3534 61.5 32.5449 61.5H16.5449C13.7364 61.5 11.6601 61.4996 10.0177 61.3654C8.38106 61.2317 7.21934 60.9676 6.23201 60.4646C4.44447 59.5538 2.99116 58.1004 2.08036 56.3129C1.57729 55.3256 1.31322 54.1639 1.1795 52.5273C1.04531 50.8848 1.04492 48.8085 1.04492 46V30C1.04492 27.1915 1.04531 25.1152 1.1795 23.4727C1.31322 21.8361 1.57729 20.6744 2.08036 19.6871C2.99116 17.8996 4.44447 16.4462 6.23201 15.5354C7.21934 15.0324 8.38106 14.7683 10.0177 14.6346C11.6601 14.5004 13.7364 14.5 16.5449 14.5Z" stroke="white" stroke-opacity="0.6"/>
<path d="M24.5449 33C25.9256 33 27.0449 31.8807 27.0449 30.5C27.0449 29.1193 25.9256 28 24.5449 28C23.1642 28 22.0449 29.1193 22.0449 30.5C22.0449 31.8807 23.1642 33 24.5449 33Z" stroke="white" stroke-width="1.5" stroke-linecap="round" stroke-linejoin="round"/>
<path d="M22.7457 32.3L18.8457 36.2" stroke="white" stroke-width="1.5" stroke-linecap="round" stroke-linejoin="round"/>
<path d="M17.0449 40.5C18.4256 40.5 19.5449 39.3807 19.5449 38C19.5449 36.6193 18.4256 35.5 17.0449 35.5C15.6642 35.5 14.5449 36.6193 14.5449 38C14.5449 39.3807 15.6642 40.5 17.0449 40.5Z" stroke="white" stroke-width="1.5" stroke-linecap="round" stroke-linejoin="round"/>
<path d="M19.5449 38H29.5449" stroke="white" stroke-width="1.5" stroke-linecap="round" stroke-linejoin="round"/>
<path d="M32.0449 40.5C33.4256 40.5 34.5449 39.3807 34.5449 38C34.5449 36.6193 33.4256 35.5 32.0449 35.5C30.6642 35.5 29.5449 36.6193 29.5449 38C29.5449 39.3807 30.6642 40.5 32.0449 40.5Z" stroke="white" stroke-width="1.5" stroke-linecap="round" stroke-linejoin="round"/>
<path d="M26.3457 43.7L30.2457 39.8" stroke="white" stroke-width="1.5" stroke-linecap="round" stroke-linejoin="round"/>
<path d="M24.5449 48C25.9256 48 27.0449 46.8807 27.0449 45.5C27.0449 44.1193 25.9256 43 24.5449 43C23.1642 43 22.0449 44.1193 22.0449 45.5C22.0449 46.8807 23.1642 48 24.5449 48Z" stroke="white" stroke-width="1.5" stroke-linecap="round" stroke-linejoin="round"/>
</g>
<defs>
<filter id="filter0_b_306_1921" x="-15.4551" y="-2" width="80" height="80" filterUnits="userSpaceOnUse" color-interpolation-filters="sRGB">
<feFlood flood-opacity="0" result="BackgroundImageFix"/>
<feGaussianBlur in="BackgroundImageFix" stdDeviation="8"/>
<feComposite in2="SourceAlpha" operator="in" result="effect1_backgroundBlur_306_1921"/>
<feBlend mode="normal" in="SourceGraphic" in2="effect1_backgroundBlur_306_1921" result="shape"/>
</filter>
</defs>
</svg>
