<svg width="62" height="62" viewBox="0 0 62 62" fill="none" xmlns="http://www.w3.org/2000/svg">
<path d="M12.4411 10.2653C13.8705 4.93068 19.3539 1.76485 24.6886 3.19427L51.7345 10.4412C57.0691 11.8706 60.235 17.354 58.8055 22.6887L51.5586 49.7346C50.1292 55.0692 44.6458 58.2351 39.3112 56.8056L12.2652 49.5587C6.93058 48.1293 3.76476 42.6459 5.19417 37.3113L12.4411 10.2653Z" fill="#7F56D9"/>
<g filter="url(#filter0_b_306_1933)">
<path d="M0 30C0 24.3995 0 21.5992 1.08993 19.4601C2.04867 17.5785 3.57847 16.0487 5.46009 15.0899C7.59921 14 10.3995 14 16 14H32C37.6005 14 40.4008 14 42.5399 15.0899C44.4215 16.0487 45.9513 17.5785 46.9101 19.4601C48 21.5992 48 24.3995 48 30V46C48 51.6005 48 54.4008 46.9101 56.5399C45.9513 58.4215 44.4215 59.9513 42.5399 60.9101C40.4008 62 37.6005 62 32 62H16C10.3995 62 7.59921 62 5.46009 60.9101C3.57847 59.9513 2.04867 58.4215 1.08993 56.5399C0 54.4008 0 51.6005 0 46V30Z" fill="white" fill-opacity="0.6"/>
<path d="M16 14.5H32C34.8085 14.5 36.8848 14.5004 38.5273 14.6346C40.1639 14.7683 41.3256 15.0324 42.3129 15.5354C44.1004 16.4462 45.5538 17.8996 46.4646 19.6871C46.9676 20.6744 47.2317 21.8361 47.3654 23.4727C47.4996 25.1152 47.5 27.1915 47.5 30V46C47.5 48.8085 47.4996 50.8848 47.3654 52.5273C47.2317 54.1639 46.9676 55.3256 46.4646 56.3129C45.5538 58.1004 44.1004 59.5538 42.3129 60.4646C41.3256 60.9676 40.1639 61.2317 38.5273 61.3654C36.8848 61.4996 34.8085 61.5 32 61.5H16C13.1915 61.5 11.1152 61.4996 9.47274 61.3654C7.83613 61.2317 6.67442 60.9676 5.68709 60.4646C3.89955 59.5538 2.44624 58.1004 1.53544 56.3129C1.03237 55.3256 0.768297 54.1639 0.634581 52.5273C0.500389 50.8848 0.5 48.8085 0.5 46V30C0.5 27.1915 0.500389 25.1152 0.634581 23.4727C0.768297 21.8361 1.03237 20.6744 1.53544 19.6871C2.44624 17.8996 3.89955 16.4462 5.68709 15.5354C6.67442 15.0324 7.83613 14.7683 9.47274 14.6346C11.1152 14.5004 13.1915 14.5 16 14.5Z" stroke="white" stroke-opacity="0.6"/>
<path d="M27 32V38" stroke="white" stroke-width="1.5" stroke-linecap="round" stroke-linejoin="round"/>
<path d="M22 38L33.373 38" stroke="white" stroke-width="1.5" stroke-linecap="round" stroke-linejoin="round"/>
<path d="M30 44H33C33 44 33.5 42.3 33.8 41.2C33.9 40.8 34 40.4 34 40C34 39.6 33.9 39.2 33.8 38.8L32.4 33.8C32.1 32.8 31.1 32 30 32H21.9629M14 33.234V44H17" stroke="white" stroke-width="1.5" stroke-linecap="round" stroke-linejoin="round"/>
<path d="M19 46C20.1046 46 21 45.1046 21 44C21 42.8954 20.1046 42 19 42C17.8954 42 17 42.8954 17 44C17 45.1046 17.8954 46 19 46Z" stroke="white" stroke-width="1.5" stroke-linecap="round" stroke-linejoin="round"/>
<path d="M21 44H26" stroke="white" stroke-width="1.5" stroke-linecap="round" stroke-linejoin="round"/>
<path d="M28 46C29.1046 46 30 45.1046 30 44C30 42.8954 29.1046 42 28 42C26.8954 42 26 42.8954 26 44C26 45.1046 26.8954 46 28 46Z" stroke="white" stroke-width="1.5" stroke-linecap="round" stroke-linejoin="round"/>
<path d="M18 37.1714C20.2091 37.1714 22 35.3805 22 33.1714C22 30.9622 20.2091 29.1714 18 29.1714C15.7909 29.1714 14 30.9622 14 33.1714C14 35.3805 15.7909 37.1714 18 37.1714Z" stroke="white" stroke-width="1.5" stroke-linecap="round" stroke-linejoin="round"/>
<path d="M15.1602 30.3314L20.8402 36.0114" stroke="white" stroke-width="1.5" stroke-linecap="round" stroke-linejoin="round"/>
</g>
<defs>
<filter id="filter0_b_306_1933" x="-16" y="-2" width="80" height="80" filterUnits="userSpaceOnUse" color-interpolation-filters="sRGB">
<feFlood flood-opacity="0" result="BackgroundImageFix"/>
<feGaussianBlur in="BackgroundImageFix" stdDeviation="8"/>
<feComposite in2="SourceAlpha" operator="in" result="effect1_backgroundBlur_306_1933"/>
<feBlend mode="normal" in="SourceGraphic" in2="effect1_backgroundBlur_306_1933" result="shape"/>
</filter>
</defs>
</svg>
